<svg xmlns="http://www.w3.org/2000/svg" viewBox="0 0 1214.76 436.71" fill="currentColor" aria-hidden="true">
  <g>
    <path d="M611.95,46.48l-47.71,160.16h-44.56l-28.16-97.47-29.42,97.47h-44.56l-47.71-160.16h42.87l29.63,102.27,31.1-102.27h38.25l29.63,103.19,30.89-103.19h39.72Z"/>
    <path d="M628.13,36.87h39.93v169.77h-39.93V36.87Z"/>
    <path d="M814.33,82.63v124.01h-38.04v-12.35c-7.43,9.61-18.64,14.41-33.63,14.41-10.37,0-19.79-2.63-28.27-7.89-8.48-5.26-15.2-12.77-20.18-22.54-4.98-9.76-7.46-21.05-7.46-33.86s2.49-24.06,7.46-33.75c4.97-9.68,11.7-17.12,20.18-22.31,8.48-5.18,17.9-7.78,28.27-7.78,13.45,0,24.03,4.27,31.73,12.81v-10.75h39.93ZM768.31,166.25c4.48-5.26,6.73-12.54,6.73-21.85s-2.24-16.32-6.73-21.51c-4.49-5.18-10.23-7.78-17.23-7.78s-12.75,2.6-17.23,7.78c-4.49,5.19-6.73,12.36-6.73,21.51s2.24,16.59,6.73,21.85c4.48,5.26,10.23,7.89,17.23,7.89s12.75-2.63,17.23-7.89Z"/>
    <path d="M948.31,94.3c8.62,9.15,12.92,22.96,12.92,41.41v70.93h-39.93v-63.83c0-16.93-6.24-25.4-18.7-25.4-6.87,0-12.37,2.44-16.5,7.32-4.13,4.88-6.2,12.21-6.2,21.96v59.94h-39.93v-124.01h38.04v13.5c4.48-5.03,9.81-8.88,15.97-11.55,6.16-2.67,12.89-4,20.18-4,14.15,0,25.54,4.58,34.15,13.73Z"/>
    <path d="M1108.98,36.87v169.77h-38.04v-12.35c-7.43,9.61-18.57,14.41-33.42,14.41-10.37,0-19.83-2.63-28.37-7.89-8.55-5.26-15.31-12.77-20.28-22.54-4.97-9.76-7.46-21.05-7.46-33.86s2.49-24.06,7.46-33.75c4.97-9.68,11.73-17.12,20.28-22.31,8.54-5.18,18-7.78,28.37-7.78,13.59,0,24.1,4.27,31.53,12.81v-56.51h39.93ZM1062.96,166.25c4.48-5.26,6.73-12.54,6.73-21.85s-2.21-16.32-6.62-21.51c-4.41-5.18-10.12-7.78-17.13-7.78s-12.75,2.6-17.23,7.78c-4.49,5.19-6.73,12.36-6.73,21.51s2.24,16.59,6.73,21.85c4.48,5.26,10.23,7.89,17.23,7.89s12.54-2.63,17.02-7.89Z"/>
    <path d="M413.02,389.2c-12.26-7.09-21.89-16.97-28.9-29.63-7.01-12.66-10.51-27-10.51-43.01s3.5-30.35,10.51-43.01c7-12.66,16.64-22.54,28.9-29.63,12.26-7.09,26.09-10.64,41.51-10.64,13.45,0,25.57,2.6,36.36,7.78,10.79,5.19,19.75,12.66,26.9,22.42l-26.48,26.08c-9.53-12.5-21.09-18.76-34.68-18.76-7.99,0-15.1,1.91-21.33,5.72-6.24,3.81-11.07,9.19-14.5,16.13-3.43,6.94-5.15,14.91-5.15,23.91s1.71,16.97,5.15,23.91c3.43,6.94,8.27,12.32,14.5,16.13,6.23,3.81,13.35,5.72,21.33,5.72,13.59,0,25.15-6.25,34.68-18.76l26.48,26.08c-7.15,9.76-16.11,17.24-26.9,22.42-10.79,5.18-22.91,7.78-36.36,7.78-15.41,0-29.25-3.55-41.51-10.64Z"/>
    <path d="M642.73,284.3c8.62,9.15,12.92,22.96,12.92,41.41v70.93h-39.93v-63.83c0-16.93-6.24-25.4-18.7-25.4-6.87,0-12.37,2.44-16.5,7.32-4.13,4.88-6.2,12.21-6.2,21.96v59.94h-39.93v-169.77h39.93v57.2c4.34-4.42,9.46-7.78,15.34-10.07,5.88-2.29,12.19-3.43,18.92-3.43,14.15,0,25.54,4.58,34.15,13.73Z"/>
    <path d="M802.77,272.63v124.01h-38.04v-12.35c-7.43,9.61-18.64,14.41-33.63,14.41-10.37,0-19.79-2.63-28.27-7.89-8.48-5.26-15.2-12.77-20.18-22.54-4.98-9.76-7.46-21.05-7.46-33.86s2.49-24.06,7.46-33.75c4.97-9.68,11.7-17.12,20.18-22.31,8.48-5.18,17.9-7.78,28.27-7.78,13.45,0,24.03,4.27,31.73,12.81v-10.75h39.93ZM756.75,356.25c4.48-5.26,6.73-12.54,6.73-21.85s-2.24-16.32-6.73-21.51c-4.49-5.18-10.23-7.78-17.23-7.78s-12.75,2.6-17.23,7.78c-4.49,5.19-6.73,12.36-6.73,21.51s2.24,16.59,6.73,21.85c4.48,5.26,10.23,7.89,17.23,7.89s12.75-2.63,17.23-7.89Z"/>
    <path d="M907.02,391.6c-3.36,2.29-7.46,4.04-12.29,5.26-4.83,1.22-9.98,1.83-15.45,1.83-14.85,0-26.27-3.96-34.26-11.9-7.99-7.93-11.98-19.75-11.98-35.46v-41.64h-16.6v-32.49h16.6v-32.26h39.93v32.26h26.06v32.49h-26.06v41.18c0,4.43,1.08,7.89,3.26,10.41,2.17,2.52,5.08,3.77,8.72,3.77,4.62,0,8.69-1.29,12.19-3.89l9.88,30.43Z"/>
    <path d="M985.82,252.27c-4.49-4.42-6.73-9.91-6.73-16.47s2.24-12.05,6.73-16.47c4.48-4.42,10.37-6.63,17.65-6.63s13.17,2.1,17.65,6.29c4.48,4.2,6.73,9.57,6.73,16.13s-2.24,12.55-6.73,17.04c-4.49,4.5-10.37,6.75-17.65,6.75s-13.17-2.21-17.65-6.64ZM983.51,272.63h39.93v124.01h-39.93v-124.01Z"/>
    <path d="M1149.75,365.52h-62.21l-11.56,31.12h-42.45l64.94-160.16h40.98l65.15,160.16h-43.29l-11.56-31.12ZM1137.56,332.12l-18.92-51.25-18.92,51.25h37.83Z"/>
  </g>
  <g>
    <path d="M90.83,200.04c-35.14-35.72-44.12-92.86-33.97-140.59,8.85-41.61,28.2-45.93,67.2-50.58,32.91-3.93,79.95-3.47,111.95,5.55,52.61,12.02,53.33,157.01-2.78,165.52-23.71,6.4-50.77,7.09-75.24,7.6-1.82.62-2.69,7.64-3.75,10.22-13.84,28.73-44.87,23.8-63.4,2.28ZM162.17,43.91c-14.26.1-32.94,1.54-46.99,4-7.52,1.32-15.75,1.54-18.76,9.19-11.79,38.59-6.9,89.33,23.5,118.32,1.52.05,2.92-10.23,3.7-12.25,2.23-5.79,8.76-11.68,14.74-13.21,9.68-2.49,30.21.14,41.49-.43,11.63-.59,33.79-2.89,44.59-6.31,2.95-.93,5-1.75,6.29-4.69,8.37-19.08,7.29-59.26,1.2-79.09-3.16-10.29-10.41-9.96-20.3-11.64-14.87-2.53-34.4-3.97-49.46-3.87Z"/>
    <path d="M283.43,423.69c-1.79-2.2-3.85-8.39-4.19-11.29-5.14-43.49,1.36-119.01-52.81-131.86-30.83-7.31-106.9-8.81-135.73,3.41-42.19,17.88-37.73,90.15-42.24,128.45-2.72,23.07-34.16,23.33-37.58,2.87-2.11-12.64,2.11-40.82,3.9-54.52,5.63-43.18,11.67-84.52,53.09-107.62,36.63-20.44,125.84-18.74,166.56-9.52,63.3,14.35,73.08,69.31,79.52,125.11.83,15.24,6.99,39.52.34,52.99-6.26,10.52-23.2,11.33-30.84,1.98Z"/>
    <path d="M196.93,329.82c-9.95,10.96-41.45,6.55-54.81,6.1-21.11-3.3-20.82-33.97,0-37.46,7.27-1.22,36.18-1.22,43.44,0,14.23,2.38,21.11,20.33,11.37,31.36Z"/>
  </g>
</svg>