<?xml version="1.0" encoding="UTF-8"?>
<svg id="a" data-name="Capa 1" xmlns="http://www.w3.org/2000/svg" viewBox="0 0 460 460" width="48" height="48">
  <path d="M127.63,368.7c-14.18-2.52-27.77-7.91-39.92-15.56-38.55-24.28-53.78-61.81-58-105.82-3.84-39.99-2.32-83.71,2-123.67,6.82-63.14,49.25-104.09,112.46-108.36,57.29-3.87,114.64-3.9,171.94,0,49.44,3.37,85.92,28.08,104.03,74.85,13.68,35.32,13.21,90.56,11.47,128.26-2.32,50.33-4.53,90.31-44.95,125.85-29.55,25.99-62.97,28.08-100.5,30.45-6.43.41-13.24-1.3-19.22,1.78l-116.62,66.27c-5.84,2.94-11.11,5.78-17.98,4.59-8.49-1.48-18.38-9.44-19.69-18.28-2.39-16.08,11.22-40.6,14.77-57.09.23-1.09.33-2.17.19-3.27ZM177.64,371.68l75.99-42.44c41.56-5.97,92.46,5.3,117.19-37.74,11-19.15,11.5-44.6,12.79-66.11,1.95-32.8,2.17-67.31-3.05-99.73-6.21-38.6-27.59-61.04-67.39-63.51-53.4-3.31-112.66-3.31-166.06,0-37.52,2.32-62.22,23.89-67.4,61.5-4.62,33.52-5.39,72.91-3.04,106.73,2.86,41.18,8.7,80.22,54.75,92.1,10.61,2.74,20.16,2.17,30.66,3.34,11.46,1.28,21.26,11.89,21.64,23.41.24,7.17-4.88,15.43-6.07,22.45Z"/>
  <path d="M157.4,112.36l143.68-.19c30.74,2.79,30.84,43.87,1,47.79h-144.87c-28.69-4.9-28.74-43.25.19-47.6Z"/>
  <path d="M153.36,207.17h82.57c24.85,7.05,23.62,41.58-1.83,46.66l-79.73-.17c-24.38-5.92-25.17-39.68-1-46.49Z"/>
</svg>