<?xml version="1.0" encoding="UTF-8"?>
<svg id="a" data-name="Capa 1" xmlns="http://www.w3.org/2000/svg" viewBox="0 0 460 460" width="48" height="48">
  <path d="M213.73,14.61c156.31-10.92,268.96,138.52,219.84,286.73-1.58,4.78-6.29,12.9-6.94,17.01-4.09,25.78,2.96,61.71-.17,88.68-1.14,9.87-7,17.71-17.32,18.62-26.93,2.37-62.24-3.85-87.83.02-5.67.86-16.95,7.27-23.54,9.4C129.04,489.69-29.2,329.34,25.98,161.28,52.32,81.04,129.16,20.52,213.73,14.61ZM386.63,386.68v-72.38c0-5.92,10.93-28.23,13.26-36.65C450.13,96.1,217-27.56,96.17,115.67c-112,132.76,15.17,330.77,183.1,283.94,8.95-2.5,29.03-12.92,35.99-12.92h71.38Z"/>
  <path d="M128.86,246.15c18.91-1.96,20.36,14.82,27.37,27.03,11.57,20.16,23.32,25.73,42.41,36.45,20.22,11.35,11.03,40.96-13.1,37.06-25.85-4.18-68.37-50.09-73.2-75.55-2.23-11.76,4.09-23.7,16.52-24.99Z"/>
</svg>