<?xml version="1.0" encoding="UTF-8"?>
<svg id="a" data-name="Capa 1" xmlns="http://www.w3.org/2000/svg" viewBox="0 0 460 460" width="48" height="48">
  <path d="M388.88,83.91c14.04,14.28,19.29,36.13,23.01,55.33,8.11,41.87,8.08,84.31.02,126.19-8.31,43.18-21.15,66.84-66.39,76.33-46.07,9.66-93.29,11.98-140.3,11.4-.92.16-1.07.87-1.43,1.56-2.42,4.62-2.98,18.58-5.46,25.48-11.59,32.23-47.52,36.28-73.05,16.72C49.5,338.86,30.46,227.64,48.18,138.23c10.54-53.19,27.36-68.82,80.36-78.33,64.39-11.55,138.66-11.54,203.02,0,21.53,3.86,41.43,7.85,57.33,24.01ZM198.4,89.84c-23.81,1.15-54.6,4.55-77.65,10.17-22.14,5.4-26.47,10.65-32.43,32.44-20.44,74.73-6.88,177.37,54.39,230.07,5.1,4.39,15.76,14.2,20.2,4.21,7.25-16.29.38-43.37,22.94-50.92,8.8-2.94,12.28-.76,20.21-.67,40.56.46,80.7-.97,120.64-8.19,25.7-4.65,36.66-5.45,44.29-32.55,12.19-43.26,12.93-106.93-1.45-149.68-5.77-17.15-13.43-20.65-30.19-24.7-42.53-10.27-97.18-12.28-140.94-10.18Z"/>
  <path d="M313.19,237.49c20.84-1.5,29.15,28.93,6.96,36.98-30.38,11.02-87.75,14.29-120.04,11.68-14.99-1.21-50.87-5.67-63.44-12.41-12.83-6.89-12.76-25.22-.9-32.94,8.66-5.64,16.29-.81,24.89.96,44.52,9.19,85.21,9.54,129.96,1.19,6.84-1.28,16.3-5.02,22.56-5.46Z"/>
</svg>