<?xml version="1.0" encoding="UTF-8"?>
<svg id="a" data-name="Capa 1" xmlns="http://www.w3.org/2000/svg" viewBox="0 0 460 460" width="48" height="48">
  <g id="b" data-name="icono">
    <path id="c" data-name="cabeza" d="M157.1,211.69c-35.14-35.72-44.12-92.86-33.97-140.59,8.85-41.61,28.2-45.93,67.2-50.58,32.91-3.93,79.95-3.47,111.95,5.55,52.61,12.02,53.33,157.01-2.78,165.52-23.71,6.4-50.77,7.09-75.24,7.6-1.82.62-2.69,7.64-3.75,10.22-13.84,28.73-44.87,23.8-63.4,2.28ZM228.44,55.55c-14.26.1-32.94,1.54-46.99,4-7.52,1.32-15.75,1.54-18.76,9.19-11.79,38.59-6.9,89.33,23.5,118.32,1.52.05,2.92-10.23,3.7-12.25,2.23-5.79,8.76-11.68,14.74-13.21,9.68-2.49,30.21.14,41.49-.43,11.63-.59,33.79-2.89,44.59-6.31,2.95-.93,5-1.75,6.29-4.69,8.37-19.08,7.29-59.26,1.2-79.09-3.16-10.29-10.41-9.96-20.3-11.64-14.87-2.53-34.4-3.97-49.46-3.87Z"/>
    <path id="d" data-name="cuerpo" d="M349.69,435.34c-1.79-2.2-3.85-8.39-4.19-11.29-5.14-43.49,1.36-119.01-52.81-131.86-30.83-7.31-106.9-8.81-135.73,3.41-42.19,17.88-37.73,90.15-42.24,128.45-2.72,23.07-34.16,23.33-37.58,2.87-2.11-12.64,2.11-40.82,3.9-54.52,5.63-43.18,11.67-84.52,53.09-107.62,36.63-20.44,125.84-18.74,166.56-9.52,63.3,14.35,73.08,69.31,79.52,125.11.83,15.24,6.99,39.52.34,52.99-6.26,10.52-23.2,11.33-30.84,1.98Z"/>
    <path id="e" data-name="pajarita" d="M263.2,341.46c-9.95,10.96-41.45,6.55-54.81,6.1-21.11-3.3-20.82-33.97,0-37.46,7.27-1.22,36.18-1.22,43.44,0,14.23,2.38,21.11,20.33,11.37,31.36Z"/>
  </g>
</svg>